<svg xmlns="http://www.w3.org/2000/svg" xmlns:xlink="http://www.w3.org/1999/xlink" width="1040" height="581.04"><rect width="1040" height="581.04" rx="5" ry="5" class="a"/><svg y="0%" x="0%"><circle cx="20" cy="20" r="6" fill="#ff5f58"/><circle cx="40" cy="20" r="6" fill="#ffbd2e"/><circle cx="60" cy="20" r="6" fill="#18c132"/></svg><svg height="521.04" viewBox="0 0 100 52.104" width="1000" x="15" xmlns="http://www.w3.org/2000/svg" xmlns:xlink="http://www.w3.org/1999/xlink" y="50"><style>@keyframes i{0%{transform:translateX(0)}.1%{transform:translateX(-100px)}9.5%{transform:translateX(-200px)}10.3%{transform:translateX(-300px)}11.7%{transform:translateX(-400px)}18.7%{transform:translateX(-500px)}20.9%{transform:translateX(-600px)}22.4%{transform:translateX(-700px)}25%{transform:translateX(-800px)}25.7%{transform:translateX(-900px)}27.2%{transform:translateX(-1000px)}27.8%{transform:translateX(-1100px)}29.4%{transform:translateX(-1200px)}29.9%{transform:translateX(-1300px)}34.1%{transform:translateX(-1500px)}34.2%{transform:translateX(-1900px)}52.2%{transform:translateX(-2000px)}52.6%{transform:translateX(-2100px)}53.4%{transform:translateX(-2200px)}55.5%{transform:translateX(-2300px)}56.8%{transform:translateX(-2400px)}58.1%{transform:translateX(-2500px)}62.9%{transform:translateX(-2700px)}66.8%{transform:translateX(-2800px)}68.1%{transform:translateX(-2900px)}69.1%{transform:translateX(-3000px)}69.2%{transform:translateX(-3300px)}78.9%{transform:translateX(-3400px)}79.8%{transform:translateX(-3500px)}80.1%{transform:translateX(-3600px)}82.1%{transform:translateX(-3700px)}83.6%{transform:translateX(-3800px)}85%{transform:translateX(-4000px)}95.3%{transform:translateX(-4100px)}97.1%{transform:translateX(-4200px)}98.1%{transform:translateX(-4300px)}99%{transform:translateX(-4400px)}to{transform:translateX(-4600px)}}.a{fill:#282d35}.f{fill:#b9c0cb;white-space:pre}</style><g font-family="Monaco,Consolas,Menlo,'Bitstream Vera Sans Mono','Powerline Symbols',monospace" font-size="1.67"><defs><symbol id="1"><text y="1.67" class="f">[mwbc@matts-mbp-2</text><text x="18.036" y="1.67" class="f">PLAN</text><text x="23.046" y="1.67" class="f">390</text><text x="27.054" y="1.67" class="f">SP22]$</text></symbol><symbol id="2"><text y="1.67" class="f">[mwbc@matts-mbp-2</text><text x="18.036" y="1.67" class="f">PLAN</text><text x="23.046" y="1.67" class="f">390</text><text x="27.054" y="1.67" class="f">SP22]$</text><text x="34.068" y="1.67" class="f">ls</text></symbol><symbol id="3"><text y="1.67" class="f">[mwbc@matts-mbp-2</text><text x="18.036" y="1.67" class="f">PLAN</text><text x="23.046" y="1.67" class="f">390</text><text x="27.054" y="1.67" class="f">SP22]$</text><text x="34.068" y="1.67" class="f">ls</text><text x="37.074" y="1.67" class="f">-l</text></symbol><symbol id="4"><text y="1.67" class="f">[mwbc@matts-mbp-2</text><text x="18.036" y="1.67" class="f">PLAN</text><text x="23.046" y="1.67" class="f">390</text><text x="27.054" y="1.67" class="f">SP22]$</text><text x="34.068" y="1.67" class="f">ls</text><text x="37.074" y="1.67" class="f">-l</text><text x="40.08" y="1.67" class="f">slides</text></symbol><symbol id="5"><text y="1.67" class="f">total</text><text x="6.012" y="1.67" class="f">142200</text></symbol><symbol id="6"><text y="1.67" class="f">-rw-------@</text><text x="12.024" y="1.67" class="f">1</text><text x="14.028" y="1.67" class="f">mwbc</text><text x="20.04" y="1.67" class="f">staff</text><text x="27.054" y="1.67" class="f">13756160</text><text x="36.072" y="1.67" class="f">Jan</text><text x="41.082" y="1.67" class="f">6</text><text x="43.086" y="1.67" class="f">10:23</text><text x="49.098" y="1.67" class="f">AR1SWJS00030092.tif</text></symbol><symbol id="7"><text y="1.67" class="f">-rw-------@</text><text x="12.024" y="1.67" class="f">1</text><text x="14.028" y="1.67" class="f">mwbc</text><text x="20.04" y="1.67" class="f">staff</text><text x="27.054" y="1.67" class="f">13755860</text><text x="36.072" y="1.67" class="f">Jan</text><text x="41.082" y="1.67" class="f">6</text><text x="43.086" y="1.67" class="f">10:09</text><text x="49.098" y="1.67" class="f">AR1VCEM00010167.tif</text></symbol><symbol id="8"><text y="1.67" class="f">-rw-------@</text><text x="12.024" y="1.67" class="f">1</text><text x="14.028" y="1.67" class="f">mwbc</text><text x="20.04" y="1.67" class="f">staff</text><text x="33.066" y="1.67" class="f">88</text><text x="36.072" y="1.67" class="f">Jan</text><text x="41.082" y="1.67" class="f">6</text><text x="43.086" y="1.67" class="f">10:43</text><text x="49.098" y="1.67" class="f">AR1VCEM00010167.wld</text></symbol><symbol id="9"><text y="1.67" class="f">-rw-------@</text><text x="12.024" y="1.67" class="f">1</text><text x="14.028" y="1.67" class="f">mwbc</text><text x="20.04" y="1.67" class="f">staff</text><text x="31.062" y="1.67" class="f">1891</text><text x="36.072" y="1.67" class="f">Jan</text><text x="40.08" y="1.67" class="f">12</text><text x="43.086" y="1.67" class="f">10:47</text><text x="49.098" y="1.67" class="f">cli-and-git.md</text></symbol><symbol id="10"><text y="1.67" class="f">-rw-------</text><text x="12.024" y="1.67" class="f">1</text><text x="14.028" y="1.67" class="f">mwbc</text><text x="20.04" y="1.67" class="f">staff</text><text x="32.064" y="1.67" class="f">536</text><text x="36.072" y="1.67" class="f">Jan</text><text x="40.08" y="1.67" class="f">12</text><text x="43.086" y="1.67" class="f">10:48</text><text x="49.098" y="1.67" class="f">cli-demo.cast</text></symbol><symbol id="11"><text y="1.67" class="f">-rw-------@</text><text x="12.024" y="1.67" class="f">1</text><text x="14.028" y="1.67" class="f">mwbc</text><text x="20.04" y="1.67" class="f">staff</text><text x="31.062" y="1.67" class="f">6634</text><text x="36.072" y="1.67" class="f">Jan</text><text x="41.082" y="1.67" class="f">6</text><text x="43.086" y="1.67" class="f">13:44</text><text x="49.098" y="1.67" class="f">data-sci-ethics.md</text></symbol><symbol id="12"><text y="1.67" class="f">-rw-------@</text><text x="12.024" y="1.67" class="f">1</text><text x="14.028" y="1.67" class="f">mwbc</text><text x="20.04" y="1.67" class="f">staff</text><text x="28.056" y="1.67" class="f">3726573</text><text x="36.072" y="1.67" class="f">Jan</text><text x="41.082" y="1.67" class="f">5</text><text x="43.086" y="1.67" class="f">13:04</text><text x="49.098" y="1.67" class="f">ebostonexpwy.jpg</text></symbol><symbol id="13"><text y="1.67" class="f">-rw-------@</text><text x="12.024" y="1.67" class="f">1</text><text x="14.028" y="1.67" class="f">mwbc</text><text x="20.04" y="1.67" class="f">staff</text><text x="29.058" y="1.67" class="f">341572</text><text x="36.072" y="1.67" class="f">Jan</text><text x="41.082" y="1.67" class="f">6</text><text x="43.086" y="1.67" class="f">13:22</text><text x="49.098" y="1.67" class="f">i35.png</text></symbol><symbol id="14"><text y="1.67" class="f">-rw-------@</text><text x="12.024" y="1.67" class="f">1</text><text x="14.028" y="1.67" class="f">mwbc</text><text x="20.04" y="1.67" class="f">staff</text><text x="31.062" y="1.67" class="f">1695</text><text x="36.072" y="1.67" class="f">Jan</text><text x="40.08" y="1.67" class="f">10</text><text x="43.086" y="1.67" class="f">15:55</text><text x="49.098" y="1.67" class="f">intro.md</text></symbol><symbol id="15"><text y="1.67" class="f">-rw-------@</text><text x="12.024" y="1.67" class="f">1</text><text x="14.028" y="1.67" class="f">mwbc</text><text x="20.04" y="1.67" class="f">staff</text><text x="27.054" y="1.67" class="f">25205817</text><text x="36.072" y="1.67" class="f">Jan</text><text x="41.082" y="1.67" class="f">6</text><text x="43.086" y="1.67" class="f">12:42</text><text x="49.098" y="1.67" class="f">la_after.png</text></symbol><symbol id="16"><text y="1.67" class="f">-rw-------@</text><text x="12.024" y="1.67" class="f">1</text><text x="14.028" y="1.67" class="f">mwbc</text><text x="20.04" y="1.67" class="f">staff</text><text x="27.054" y="1.67" class="f">12226271</text><text x="36.072" y="1.67" class="f">Jan</text><text x="41.082" y="1.67" class="f">6</text><text x="43.086" y="1.67" class="f">12:42</text><text x="49.098" y="1.67" class="f">la_before.png</text></symbol><symbol id="17"><text y="1.67" class="f">-rw-------@</text><text x="12.024" y="1.67" class="f">1</text><text x="14.028" y="1.67" class="f">mwbc</text><text x="20.04" y="1.67" class="f">staff</text><text x="30.06" y="1.67" class="f">25371</text><text x="36.072" y="1.67" class="f">Jan</text><text x="41.082" y="1.67" class="f">6</text><text x="43.086" y="1.67" class="f">13:30</text><text x="49.098" y="1.67" class="f">littlepinkhouse.jpg</text></symbol><symbol id="18"><text y="1.67" class="f">-rw-------@</text><text x="12.024" y="1.67" class="f">1</text><text x="14.028" y="1.67" class="f">mwbc</text><text x="20.04" y="1.67" class="f">staff</text><text x="28.056" y="1.67" class="f">2958838</text><text x="36.072" y="1.67" class="f">Jan</text><text x="41.082" y="1.67" class="f">6</text><text x="43.086" y="1.67" class="f">10:51</text><text x="49.098" y="1.67" class="f">neptune.jpg</text></symbol><symbol id="19"><text y="1.67" class="f">-rw-------@</text><text x="12.024" y="1.67" class="f">1</text><text x="14.028" y="1.67" class="f">mwbc</text><text x="20.04" y="1.67" class="f">staff</text><text x="29.058" y="1.67" class="f">769382</text><text x="36.072" y="1.67" class="f">Jan</text><text x="40.08" y="1.67" class="f">12</text><text x="43.086" y="1.67" class="f">10:45</text><text x="49.098" y="1.67" class="f">unc.css</text></symbol><symbol id="20"><text y="1.67" class="f">[mwbc@matts-mbp-2</text><text x="18.036" y="1.67" class="f">PLAN</text><text x="23.046" y="1.67" class="f">390</text><text x="27.054" y="1.67" class="f">SP22]$</text><text x="34.068" y="1.67" class="f">cd</text></symbol><symbol id="21"><text y="1.67" class="f">[mwbc@matts-mbp-2</text><text x="18.036" y="1.67" class="f">PLAN</text><text x="23.046" y="1.67" class="f">390</text><text x="27.054" y="1.67" class="f">SP22]$</text><text x="34.068" y="1.67" class="f">cd</text><text x="37.074" y="1.67" class="f">slides/</text></symbol><symbol id="22"><text y="1.67" class="f">[mwbc@matts-mbp-2</text><text x="18.036" y="1.67" class="f">slides]$</text></symbol><symbol id="23"><text y="1.67" class="f">[mwbc@matts-mbp-2</text><text x="18.036" y="1.67" class="f">slides]$</text><text x="27.054" y="1.67" class="f">ls</text></symbol><symbol id="24"><text y="1.67" class="f">AR1SWJS00030092.tif</text><text x="24.048" y="1.67" class="f">AR1VCEM00010167.wld</text><text x="48.096" y="1.67" class="f">cli-demo.cast</text><text x="72.144" y="1.67" class="f">ebostonexpwy.jpg</text><text x="96.192" y="1.67" class="f">intr</text></symbol><symbol id="25"><text y="1.67" class="f">o.md</text><text x="16.032" y="1.67" class="f">la_before.png</text><text x="40.08" y="1.67" class="f">neptune.jpg</text></symbol><symbol id="26"><text y="1.67" class="f">AR1VCEM00010167.tif</text><text x="24.048" y="1.67" class="f">cli-and-git.md</text><text x="48.096" y="1.67" class="f">data-sci-ethics.md</text><text x="72.144" y="1.67" class="f">i35.png</text><text x="96.192" y="1.67" class="f">la_a</text></symbol><symbol id="27"><text y="1.67" class="f">fter.png</text><text x="24.048" y="1.67" class="f">littlepinkhouse.jpg</text><text x="48.096" y="1.67" class="f">unc.css</text></symbol><symbol id="28"><text y="1.67" class="f">[mwbc@matts-mbp-2</text><text x="18.036" y="1.67" class="f">slides]$</text><text x="27.054" y="1.67" class="f">cd</text></symbol><symbol id="29"><text y="1.67" class="f">[mwbc@matts-mbp-2</text><text x="18.036" y="1.67" class="f">slides]$</text><text x="27.054" y="1.67" class="f">cd</text><text x="30.06" y="1.67" class="f">..</text></symbol><symbol id="30"><text y="1.67" class="f">[mwbc@matts-mbp-2</text><text x="18.036" y="1.67" class="f">PLAN</text><text x="23.046" y="1.67" class="f">390</text><text x="27.054" y="1.67" class="f">SP22]$</text><text x="34.068" y="1.67" class="f">exit</text></symbol><symbol id="a"><path fill="transparent" d="M0 0h100v25H0z"/></symbol><symbol id="b"><path fill="#6f7683" d="M0 0h1.102v2.171H0z"/></symbol></defs><path class="a" d="M0 0h100v52.104H0z"/><g style="animation-duration:9.952456s;animation-iteration-count:infinite;animation-name:i;animation-timing-function:steps(1,end)"><svg width="4700"><svg><use xlink:href="#a"/><use xlink:href="#b" x="-.004"/></svg><svg x="100"><use xlink:href="#a"/><use xlink:href="#b" x="33.996"/><use xlink:href="#1"/></svg><svg x="200"><use xlink:href="#a"/><use xlink:href="#b" x="34.996"/><text y="1.67" class="f">[mwbc@matts-mbp-2</text><text x="18.036" y="1.67" class="f">PLAN</text><text x="23.046" y="1.67" class="f">390</text><text x="27.054" y="1.67" class="f">SP22]$</text><text x="34.068" y="1.67" class="f">l</text></svg><svg x="300"><use xlink:href="#a"/><use xlink:href="#b" x="35.996"/><use xlink:href="#2"/></svg><svg x="400"><use xlink:href="#a"/><use xlink:href="#b" x="36.996"/><use xlink:href="#2"/></svg><svg x="500"><use xlink:href="#a"/><use xlink:href="#b" x="37.996"/><text y="1.67" class="f">[mwbc@matts-mbp-2</text><text x="18.036" y="1.67" class="f">PLAN</text><text x="23.046" y="1.67" class="f">390</text><text x="27.054" y="1.67" class="f">SP22]$</text><text x="34.068" y="1.67" class="f">ls</text><text x="37.074" y="1.67" class="f">-</text></svg><svg x="600"><use xlink:href="#a"/><use xlink:href="#b" x="38.996"/><use xlink:href="#3"/></svg><svg x="700"><use xlink:href="#a"/><use xlink:href="#b" x="39.996"/><use xlink:href="#3"/></svg><svg x="800"><use xlink:href="#a"/><use xlink:href="#b" x="40.996"/><text y="1.67" class="f">[mwbc@matts-mbp-2</text><text x="18.036" y="1.67" class="f">PLAN</text><text x="23.046" y="1.67" class="f">390</text><text x="27.054" y="1.67" class="f">SP22]$</text><text x="34.068" y="1.67" class="f">ls</text><text x="37.074" y="1.67" class="f">-l</text><text x="40.08" y="1.67" class="f">s</text></svg><svg x="900"><use xlink:href="#a"/><use xlink:href="#b" x="41.996"/><text y="1.67" class="f">[mwbc@matts-mbp-2</text><text x="18.036" y="1.67" class="f">PLAN</text><text x="23.046" y="1.67" class="f">390</text><text x="27.054" y="1.67" class="f">SP22]$</text><text x="34.068" y="1.67" class="f">ls</text><text x="37.074" y="1.67" class="f">-l</text><text x="40.08" y="1.67" class="f">sl</text></svg><svg x="1000"><use xlink:href="#a"/><use xlink:href="#b" x="42.996"/><text y="1.67" class="f">[mwbc@matts-mbp-2</text><text x="18.036" y="1.67" class="f">PLAN</text><text x="23.046" y="1.67" class="f">390</text><text x="27.054" y="1.67" class="f">SP22]$</text><text x="34.068" y="1.67" class="f">ls</text><text x="37.074" y="1.67" class="f">-l</text><text x="40.08" y="1.67" class="f">sli</text></svg><svg x="1100"><use xlink:href="#a"/><use xlink:href="#b" x="43.996"/><text y="1.67" class="f">[mwbc@matts-mbp-2</text><text x="18.036" y="1.67" class="f">PLAN</text><text x="23.046" y="1.67" class="f">390</text><text x="27.054" y="1.67" class="f">SP22]$</text><text x="34.068" y="1.67" class="f">ls</text><text x="37.074" y="1.67" class="f">-l</text><text x="40.08" y="1.67" class="f">slid</text></svg><svg x="1200"><use xlink:href="#a"/><use xlink:href="#b" x="44.996"/><text y="1.67" class="f">[mwbc@matts-mbp-2</text><text x="18.036" y="1.67" class="f">PLAN</text><text x="23.046" y="1.67" class="f">390</text><text x="27.054" y="1.67" class="f">SP22]$</text><text x="34.068" y="1.67" class="f">ls</text><text x="37.074" y="1.67" class="f">-l</text><text x="40.08" y="1.67" class="f">slide</text></svg><svg x="1300"><use xlink:href="#a"/><use xlink:href="#b" x="45.996"/><use xlink:href="#4"/></svg><svg x="1400"><use xlink:href="#a"/><use xlink:href="#b" x="-.004" y="2.146"/><use xlink:href="#4"/></svg><svg x="1500"><use xlink:href="#a"/><use xlink:href="#b" x="-.004" y="2.146"/><use xlink:href="#4"/></svg><svg x="1600"><use xlink:href="#a"/><use xlink:href="#b" x="-.004" y="4.317"/><use xlink:href="#4"/><use xlink:href="#5" y="2.171"/></svg><svg x="1700"><use xlink:href="#a"/><use xlink:href="#b" x="-.004" y="17.343"/><use xlink:href="#4"/><use xlink:href="#5" y="2.171"/><use xlink:href="#6" y="4.342"/><use xlink:href="#7" y="6.513"/><use xlink:href="#8" y="8.684"/><use xlink:href="#9" y="10.855"/><use xlink:href="#10" y="13.026"/><use xlink:href="#11" y="15.197"/></svg><svg x="1800"><use xlink:href="#a"/><use xlink:href="#b" x="-.004" y="34.711"/><use xlink:href="#4"/><use xlink:href="#5" y="2.171"/><use xlink:href="#6" y="4.342"/><use xlink:href="#7" y="6.513"/><use xlink:href="#8" y="8.684"/><use xlink:href="#9" y="10.855"/><use xlink:href="#10" y="13.026"/><use xlink:href="#11" y="15.197"/><use xlink:href="#12" y="17.368"/><use xlink:href="#13" y="19.539"/><use xlink:href="#14" y="21.71"/><use xlink:href="#15" y="23.881"/><use xlink:href="#16" y="26.052"/><use xlink:href="#17" y="28.223"/><use xlink:href="#18" y="30.394"/><use xlink:href="#19" y="32.565"/></svg><svg x="1900"><use xlink:href="#a"/><use xlink:href="#b" x="33.996" y="34.711"/><use xlink:href="#4"/><use xlink:href="#5" y="2.171"/><use xlink:href="#6" y="4.342"/><use xlink:href="#7" y="6.513"/><use xlink:href="#8" y="8.684"/><use xlink:href="#9" y="10.855"/><use xlink:href="#10" y="13.026"/><use xlink:href="#11" y="15.197"/><use xlink:href="#12" y="17.368"/><use xlink:href="#13" y="19.539"/><use xlink:href="#14" y="21.71"/><use xlink:href="#15" y="23.881"/><use xlink:href="#16" y="26.052"/><use xlink:href="#17" y="28.223"/><use xlink:href="#18" y="30.394"/><use xlink:href="#19" y="32.565"/><use xlink:href="#1" y="34.736"/></svg><svg x="2000"><use xlink:href="#a"/><use xlink:href="#b" x="34.996" y="34.711"/><use xlink:href="#4"/><use xlink:href="#5" y="2.171"/><use xlink:href="#6" y="4.342"/><use xlink:href="#7" y="6.513"/><use xlink:href="#8" y="8.684"/><use xlink:href="#9" y="10.855"/><use xlink:href="#10" y="13.026"/><use xlink:href="#11" y="15.197"/><use xlink:href="#12" y="17.368"/><use xlink:href="#13" y="19.539"/><use xlink:href="#14" y="21.71"/><use xlink:href="#15" y="23.881"/><use xlink:href="#16" y="26.052"/><use xlink:href="#17" y="28.223"/><use xlink:href="#18" y="30.394"/><use xlink:href="#19" y="32.565"/><text y="36.406" class="f">[mwbc@matts-mbp-2</text><text x="18.036" y="36.406" class="f">PLAN</text><text x="23.046" y="36.406" class="f">390</text><text x="27.054" y="36.406" class="f">SP22]$</text><text x="34.068" y="36.406" class="f">c</text></svg><svg x="2100"><use xlink:href="#a"/><use xlink:href="#b" x="35.996" y="34.711"/><use xlink:href="#4"/><use xlink:href="#5" y="2.171"/><use xlink:href="#6" y="4.342"/><use xlink:href="#7" y="6.513"/><use xlink:href="#8" y="8.684"/><use xlink:href="#9" y="10.855"/><use xlink:href="#10" y="13.026"/><use xlink:href="#11" y="15.197"/><use xlink:href="#12" y="17.368"/><use xlink:href="#13" y="19.539"/><use xlink:href="#14" y="21.71"/><use xlink:href="#15" y="23.881"/><use xlink:href="#16" y="26.052"/><use xlink:href="#17" y="28.223"/><use xlink:href="#18" y="30.394"/><use xlink:href="#19" y="32.565"/><use xlink:href="#20" y="34.736"/></svg><svg x="2200"><use xlink:href="#a"/><use xlink:href="#b" x="36.996" y="34.711"/><use xlink:href="#4"/><use xlink:href="#5" y="2.171"/><use xlink:href="#6" y="4.342"/><use xlink:href="#7" y="6.513"/><use xlink:href="#8" y="8.684"/><use xlink:href="#9" y="10.855"/><use xlink:href="#10" y="13.026"/><use xlink:href="#11" y="15.197"/><use xlink:href="#12" y="17.368"/><use xlink:href="#13" y="19.539"/><use xlink:href="#14" y="21.71"/><use xlink:href="#15" y="23.881"/><use xlink:href="#16" y="26.052"/><use xlink:href="#17" y="28.223"/><use xlink:href="#18" y="30.394"/><use xlink:href="#19" y="32.565"/><use xlink:href="#20" y="34.736"/></svg><svg x="2300"><use xlink:href="#a"/><use xlink:href="#b" x="37.996" y="34.711"/><use xlink:href="#4"/><use xlink:href="#5" y="2.171"/><use xlink:href="#6" y="4.342"/><use xlink:href="#7" y="6.513"/><use xlink:href="#8" y="8.684"/><use xlink:href="#9" y="10.855"/><use xlink:href="#10" y="13.026"/><use xlink:href="#11" y="15.197"/><use xlink:href="#12" y="17.368"/><use xlink:href="#13" y="19.539"/><use xlink:href="#14" y="21.71"/><use xlink:href="#15" y="23.881"/><use xlink:href="#16" y="26.052"/><use xlink:href="#17" y="28.223"/><use xlink:href="#18" y="30.394"/><use xlink:href="#19" y="32.565"/><text y="36.406" class="f">[mwbc@matts-mbp-2</text><text x="18.036" y="36.406" class="f">PLAN</text><text x="23.046" y="36.406" class="f">390</text><text x="27.054" y="36.406" class="f">SP22]$</text><text x="34.068" y="36.406" class="f">cd</text><text x="37.074" y="36.406" class="f">s</text></svg><svg x="2400"><use xlink:href="#a"/><use xlink:href="#b" x="38.996" y="34.711"/><use xlink:href="#4"/><use xlink:href="#5" y="2.171"/><use xlink:href="#6" y="4.342"/><use xlink:href="#7" y="6.513"/><use xlink:href="#8" y="8.684"/><use xlink:href="#9" y="10.855"/><use xlink:href="#10" y="13.026"/><use xlink:href="#11" y="15.197"/><use xlink:href="#12" y="17.368"/><use xlink:href="#13" y="19.539"/><use xlink:href="#14" y="21.71"/><use xlink:href="#15" y="23.881"/><use xlink:href="#16" y="26.052"/><use xlink:href="#17" y="28.223"/><use xlink:href="#18" y="30.394"/><use xlink:href="#19" y="32.565"/><text y="36.406" class="f">[mwbc@matts-mbp-2</text><text x="18.036" y="36.406" class="f">PLAN</text><text x="23.046" y="36.406" class="f">390</text><text x="27.054" y="36.406" class="f">SP22]$</text><text x="34.068" y="36.406" class="f">cd</text><text x="37.074" y="36.406" class="f">sl</text></svg><svg x="2500"><use xlink:href="#a"/><use xlink:href="#b" x="43.996" y="34.711"/><use xlink:href="#4"/><use xlink:href="#5" y="2.171"/><use xlink:href="#6" y="4.342"/><use xlink:href="#7" y="6.513"/><use xlink:href="#8" y="8.684"/><use xlink:href="#9" y="10.855"/><use xlink:href="#10" y="13.026"/><use xlink:href="#11" y="15.197"/><use xlink:href="#12" y="17.368"/><use xlink:href="#13" y="19.539"/><use xlink:href="#14" y="21.71"/><use xlink:href="#15" y="23.881"/><use xlink:href="#16" y="26.052"/><use xlink:href="#17" y="28.223"/><use xlink:href="#18" y="30.394"/><use xlink:href="#19" y="32.565"/><use xlink:href="#21" y="34.736"/></svg><svg x="2600"><use xlink:href="#a"/><use xlink:href="#b" x="-.004" y="36.882"/><use xlink:href="#4"/><use xlink:href="#5" y="2.171"/><use xlink:href="#6" y="4.342"/><use xlink:href="#7" y="6.513"/><use xlink:href="#8" y="8.684"/><use xlink:href="#9" y="10.855"/><use xlink:href="#10" y="13.026"/><use xlink:href="#11" y="15.197"/><use xlink:href="#12" y="17.368"/><use xlink:href="#13" y="19.539"/><use xlink:href="#14" y="21.71"/><use xlink:href="#15" y="23.881"/><use xlink:href="#16" y="26.052"/><use xlink:href="#17" y="28.223"/><use xlink:href="#18" y="30.394"/><use xlink:href="#19" y="32.565"/><use xlink:href="#21" y="34.736"/></svg><svg x="2700"><use xlink:href="#a"/><use xlink:href="#b" x="26.996" y="36.882"/><use xlink:href="#4"/><use xlink:href="#5" y="2.171"/><use xlink:href="#6" y="4.342"/><use xlink:href="#7" y="6.513"/><use xlink:href="#8" y="8.684"/><use xlink:href="#9" y="10.855"/><use xlink:href="#10" y="13.026"/><use xlink:href="#11" y="15.197"/><use xlink:href="#12" y="17.368"/><use xlink:href="#13" y="19.539"/><use xlink:href="#14" y="21.71"/><use xlink:href="#15" y="23.881"/><use xlink:href="#16" y="26.052"/><use xlink:href="#17" y="28.223"/><use xlink:href="#18" y="30.394"/><use xlink:href="#19" y="32.565"/><use xlink:href="#21" y="34.736"/><use xlink:href="#22" y="36.907"/></svg><svg x="2800"><use xlink:href="#a"/><use xlink:href="#b" x="27.996" y="36.882"/><use xlink:href="#4"/><use xlink:href="#5" y="2.171"/><use xlink:href="#6" y="4.342"/><use xlink:href="#7" y="6.513"/><use xlink:href="#8" y="8.684"/><use xlink:href="#9" y="10.855"/><use xlink:href="#10" y="13.026"/><use xlink:href="#11" y="15.197"/><use xlink:href="#12" y="17.368"/><use xlink:href="#13" y="19.539"/><use xlink:href="#14" y="21.71"/><use xlink:href="#15" y="23.881"/><use xlink:href="#16" y="26.052"/><use xlink:href="#17" y="28.223"/><use xlink:href="#18" y="30.394"/><use xlink:href="#19" y="32.565"/><use xlink:href="#21" y="34.736"/><text y="38.577" class="f">[mwbc@matts-mbp-2</text><text x="18.036" y="38.577" class="f">slides]$</text><text x="27.054" y="38.577" class="f">l</text></svg><svg x="2900"><use xlink:href="#a"/><use xlink:href="#b" x="28.996" y="36.882"/><use xlink:href="#4"/><use xlink:href="#5" y="2.171"/><use xlink:href="#6" y="4.342"/><use xlink:href="#7" y="6.513"/><use xlink:href="#8" y="8.684"/><use xlink:href="#9" y="10.855"/><use xlink:href="#10" y="13.026"/><use xlink:href="#11" y="15.197"/><use xlink:href="#12" y="17.368"/><use xlink:href="#13" y="19.539"/><use xlink:href="#14" y="21.71"/><use xlink:href="#15" y="23.881"/><use xlink:href="#16" y="26.052"/><use xlink:href="#17" y="28.223"/><use xlink:href="#18" y="30.394"/><use xlink:href="#19" y="32.565"/><use xlink:href="#21" y="34.736"/><use xlink:href="#23" y="36.907"/></svg><svg x="3000"><use xlink:href="#a"/><use xlink:href="#b" x="-.004" y="39.053"/><use xlink:href="#4"/><use xlink:href="#5" y="2.171"/><use xlink:href="#6" y="4.342"/><use xlink:href="#7" y="6.513"/><use xlink:href="#8" y="8.684"/><use xlink:href="#9" y="10.855"/><use xlink:href="#10" y="13.026"/><use xlink:href="#11" y="15.197"/><use xlink:href="#12" y="17.368"/><use xlink:href="#13" y="19.539"/><use xlink:href="#14" y="21.71"/><use xlink:href="#15" y="23.881"/><use xlink:href="#16" y="26.052"/><use xlink:href="#17" y="28.223"/><use xlink:href="#18" y="30.394"/><use xlink:href="#19" y="32.565"/><use xlink:href="#21" y="34.736"/><use xlink:href="#23" y="36.907"/></svg><svg x="3100"><use xlink:href="#a"/><use xlink:href="#b" x="-.004" y="47.737"/><use xlink:href="#4"/><use xlink:href="#5" y="2.171"/><use xlink:href="#6" y="4.342"/><use xlink:href="#7" y="6.513"/><use xlink:href="#8" y="8.684"/><use xlink:href="#9" y="10.855"/><use xlink:href="#10" y="13.026"/><use xlink:href="#11" y="15.197"/><use xlink:href="#12" y="17.368"/><use xlink:href="#13" y="19.539"/><use xlink:href="#14" y="21.71"/><use xlink:href="#15" y="23.881"/><use xlink:href="#16" y="26.052"/><use xlink:href="#17" y="28.223"/><use xlink:href="#18" y="30.394"/><use xlink:href="#19" y="32.565"/><use xlink:href="#21" y="34.736"/><use xlink:href="#23" y="36.907"/><use xlink:href="#24" y="39.078"/><use xlink:href="#25" y="41.249"/><use xlink:href="#26" y="43.42"/><use xlink:href="#27" y="45.591"/></svg><svg x="3200"><use xlink:href="#a"/><use xlink:href="#b" x="-.004" y="47.737"/><use xlink:href="#4"/><use xlink:href="#5" y="2.171"/><use xlink:href="#6" y="4.342"/><use xlink:href="#7" y="6.513"/><use xlink:href="#8" y="8.684"/><use xlink:href="#9" y="10.855"/><use xlink:href="#10" y="13.026"/><use xlink:href="#11" y="15.197"/><use xlink:href="#12" y="17.368"/><use xlink:href="#13" y="19.539"/><use xlink:href="#14" y="21.71"/><use xlink:href="#15" y="23.881"/><use xlink:href="#16" y="26.052"/><use xlink:href="#17" y="28.223"/><use xlink:href="#18" y="30.394"/><use xlink:href="#19" y="32.565"/><use xlink:href="#21" y="34.736"/><use xlink:href="#23" y="36.907"/><use xlink:href="#24" y="39.078"/><use xlink:href="#25" y="41.249"/><use xlink:href="#26" y="43.42"/><use xlink:href="#27" y="45.591"/></svg><svg x="3300"><use xlink:href="#a"/><use xlink:href="#b" x="26.996" y="47.737"/><use xlink:href="#4"/><use xlink:href="#5" y="2.171"/><use xlink:href="#6" y="4.342"/><use xlink:href="#7" y="6.513"/><use xlink:href="#8" y="8.684"/><use xlink:href="#9" y="10.855"/><use xlink:href="#10" y="13.026"/><use xlink:href="#11" y="15.197"/><use xlink:href="#12" y="17.368"/><use xlink:href="#13" y="19.539"/><use xlink:href="#14" y="21.71"/><use xlink:href="#15" y="23.881"/><use xlink:href="#16" y="26.052"/><use xlink:href="#17" y="28.223"/><use xlink:href="#18" y="30.394"/><use xlink:href="#19" y="32.565"/><use xlink:href="#21" y="34.736"/><use xlink:href="#23" y="36.907"/><use xlink:href="#24" y="39.078"/><use xlink:href="#25" y="41.249"/><use xlink:href="#26" y="43.42"/><use xlink:href="#27" y="45.591"/><use xlink:href="#22" y="47.762"/></svg><svg x="3400"><use xlink:href="#a"/><use xlink:href="#b" x="27.996" y="47.737"/><use xlink:href="#4"/><use xlink:href="#5" y="2.171"/><use xlink:href="#6" y="4.342"/><use xlink:href="#7" y="6.513"/><use xlink:href="#8" y="8.684"/><use xlink:href="#9" y="10.855"/><use xlink:href="#10" y="13.026"/><use xlink:href="#11" y="15.197"/><use xlink:href="#12" y="17.368"/><use xlink:href="#13" y="19.539"/><use xlink:href="#14" y="21.71"/><use xlink:href="#15" y="23.881"/><use xlink:href="#16" y="26.052"/><use xlink:href="#17" y="28.223"/><use xlink:href="#18" y="30.394"/><use xlink:href="#19" y="32.565"/><use xlink:href="#21" y="34.736"/><use xlink:href="#23" y="36.907"/><use xlink:href="#24" y="39.078"/><use xlink:href="#25" y="41.249"/><use xlink:href="#26" y="43.42"/><use xlink:href="#27" y="45.591"/><text y="49.432" class="f">[mwbc@matts-mbp-2</text><text x="18.036" y="49.432" class="f">slides]$</text><text x="27.054" y="49.432" class="f">c</text></svg><svg x="3500"><use xlink:href="#a"/><use xlink:href="#b" x="28.996" y="47.737"/><use xlink:href="#4"/><use xlink:href="#5" y="2.171"/><use xlink:href="#6" y="4.342"/><use xlink:href="#7" y="6.513"/><use xlink:href="#8" y="8.684"/><use xlink:href="#9" y="10.855"/><use xlink:href="#10" y="13.026"/><use xlink:href="#11" y="15.197"/><use xlink:href="#12" y="17.368"/><use xlink:href="#13" y="19.539"/><use xlink:href="#14" y="21.71"/><use xlink:href="#15" y="23.881"/><use xlink:href="#16" y="26.052"/><use xlink:href="#17" y="28.223"/><use xlink:href="#18" y="30.394"/><use xlink:href="#19" y="32.565"/><use xlink:href="#21" y="34.736"/><use xlink:href="#23" y="36.907"/><use xlink:href="#24" y="39.078"/><use xlink:href="#25" y="41.249"/><use xlink:href="#26" y="43.42"/><use xlink:href="#27" y="45.591"/><use xlink:href="#28" y="47.762"/></svg><svg x="3600"><use xlink:href="#a"/><use xlink:href="#b" x="29.996" y="47.737"/><use xlink:href="#4"/><use xlink:href="#5" y="2.171"/><use xlink:href="#6" y="4.342"/><use xlink:href="#7" y="6.513"/><use xlink:href="#8" y="8.684"/><use xlink:href="#9" y="10.855"/><use xlink:href="#10" y="13.026"/><use xlink:href="#11" y="15.197"/><use xlink:href="#12" y="17.368"/><use xlink:href="#13" y="19.539"/><use xlink:href="#14" y="21.71"/><use xlink:href="#15" y="23.881"/><use xlink:href="#16" y="26.052"/><use xlink:href="#17" y="28.223"/><use xlink:href="#18" y="30.394"/><use xlink:href="#19" y="32.565"/><use xlink:href="#21" y="34.736"/><use xlink:href="#23" y="36.907"/><use xlink:href="#24" y="39.078"/><use xlink:href="#25" y="41.249"/><use xlink:href="#26" y="43.42"/><use xlink:href="#27" y="45.591"/><use xlink:href="#28" y="47.762"/></svg><svg x="3700"><use xlink:href="#a"/><use xlink:href="#b" x="30.996" y="47.737"/><use xlink:href="#4"/><use xlink:href="#5" y="2.171"/><use xlink:href="#6" y="4.342"/><use xlink:href="#7" y="6.513"/><use xlink:href="#8" y="8.684"/><use xlink:href="#9" y="10.855"/><use xlink:href="#10" y="13.026"/><use xlink:href="#11" y="15.197"/><use xlink:href="#12" y="17.368"/><use xlink:href="#13" y="19.539"/><use xlink:href="#14" y="21.71"/><use xlink:href="#15" y="23.881"/><use xlink:href="#16" y="26.052"/><use xlink:href="#17" y="28.223"/><use xlink:href="#18" y="30.394"/><use xlink:href="#19" y="32.565"/><use xlink:href="#21" y="34.736"/><use xlink:href="#23" y="36.907"/><use xlink:href="#24" y="39.078"/><use xlink:href="#25" y="41.249"/><use xlink:href="#26" y="43.42"/><use xlink:href="#27" y="45.591"/><text y="49.432" class="f">[mwbc@matts-mbp-2</text><text x="18.036" y="49.432" class="f">slides]$</text><text x="27.054" y="49.432" class="f">cd</text><text x="30.06" y="49.432" class="f">.</text></svg><svg x="3800"><use xlink:href="#a"/><use xlink:href="#b" x="31.996" y="47.737"/><use xlink:href="#4"/><use xlink:href="#5" y="2.171"/><use xlink:href="#6" y="4.342"/><use xlink:href="#7" y="6.513"/><use xlink:href="#8" y="8.684"/><use xlink:href="#9" y="10.855"/><use xlink:href="#10" y="13.026"/><use xlink:href="#11" y="15.197"/><use xlink:href="#12" y="17.368"/><use xlink:href="#13" y="19.539"/><use xlink:href="#14" y="21.71"/><use xlink:href="#15" y="23.881"/><use xlink:href="#16" y="26.052"/><use xlink:href="#17" y="28.223"/><use xlink:href="#18" y="30.394"/><use xlink:href="#19" y="32.565"/><use xlink:href="#21" y="34.736"/><use xlink:href="#23" y="36.907"/><use xlink:href="#24" y="39.078"/><use xlink:href="#25" y="41.249"/><use xlink:href="#26" y="43.42"/><use xlink:href="#27" y="45.591"/><use xlink:href="#29" y="47.762"/></svg><svg x="3900"><use xlink:href="#a"/><use xlink:href="#b" x="-.004" y="49.908"/><use xlink:href="#4"/><use xlink:href="#5" y="2.171"/><use xlink:href="#6" y="4.342"/><use xlink:href="#7" y="6.513"/><use xlink:href="#8" y="8.684"/><use xlink:href="#9" y="10.855"/><use xlink:href="#10" y="13.026"/><use xlink:href="#11" y="15.197"/><use xlink:href="#12" y="17.368"/><use xlink:href="#13" y="19.539"/><use xlink:href="#14" y="21.71"/><use xlink:href="#15" y="23.881"/><use xlink:href="#16" y="26.052"/><use xlink:href="#17" y="28.223"/><use xlink:href="#18" y="30.394"/><use xlink:href="#19" y="32.565"/><use xlink:href="#21" y="34.736"/><use xlink:href="#23" y="36.907"/><use xlink:href="#24" y="39.078"/><use xlink:href="#25" y="41.249"/><use xlink:href="#26" y="43.42"/><use xlink:href="#27" y="45.591"/><use xlink:href="#29" y="47.762"/></svg><svg x="4000"><use xlink:href="#a"/><use xlink:href="#b" x="33.996" y="49.908"/><use xlink:href="#4"/><use xlink:href="#5" y="2.171"/><use xlink:href="#6" y="4.342"/><use xlink:href="#7" y="6.513"/><use xlink:href="#8" y="8.684"/><use xlink:href="#9" y="10.855"/><use xlink:href="#10" y="13.026"/><use xlink:href="#11" y="15.197"/><use xlink:href="#12" y="17.368"/><use xlink:href="#13" y="19.539"/><use xlink:href="#14" y="21.71"/><use xlink:href="#15" y="23.881"/><use xlink:href="#16" y="26.052"/><use xlink:href="#17" y="28.223"/><use xlink:href="#18" y="30.394"/><use xlink:href="#19" y="32.565"/><use xlink:href="#21" y="34.736"/><use xlink:href="#23" y="36.907"/><use xlink:href="#24" y="39.078"/><use xlink:href="#25" y="41.249"/><use xlink:href="#26" y="43.42"/><use xlink:href="#27" y="45.591"/><use xlink:href="#29" y="47.762"/><use xlink:href="#1" y="49.933"/></svg><svg x="4100"><use xlink:href="#a"/><use xlink:href="#b" x="34.996" y="49.908"/><use xlink:href="#4"/><use xlink:href="#5" y="2.171"/><use xlink:href="#6" y="4.342"/><use xlink:href="#7" y="6.513"/><use xlink:href="#8" y="8.684"/><use xlink:href="#9" y="10.855"/><use xlink:href="#10" y="13.026"/><use xlink:href="#11" y="15.197"/><use xlink:href="#12" y="17.368"/><use xlink:href="#13" y="19.539"/><use xlink:href="#14" y="21.71"/><use xlink:href="#15" y="23.881"/><use xlink:href="#16" y="26.052"/><use xlink:href="#17" y="28.223"/><use xlink:href="#18" y="30.394"/><use xlink:href="#19" y="32.565"/><use xlink:href="#21" y="34.736"/><use xlink:href="#23" y="36.907"/><use xlink:href="#24" y="39.078"/><use xlink:href="#25" y="41.249"/><use xlink:href="#26" y="43.42"/><use xlink:href="#27" y="45.591"/><use xlink:href="#29" y="47.762"/><text y="51.603" class="f">[mwbc@matts-mbp-2</text><text x="18.036" y="51.603" class="f">PLAN</text><text x="23.046" y="51.603" class="f">390</text><text x="27.054" y="51.603" class="f">SP22]$</text><text x="34.068" y="51.603" class="f">e</text></svg><svg x="4200"><use xlink:href="#a"/><use xlink:href="#b" x="35.996" y="49.908"/><use xlink:href="#4"/><use xlink:href="#5" y="2.171"/><use xlink:href="#6" y="4.342"/><use xlink:href="#7" y="6.513"/><use xlink:href="#8" y="8.684"/><use xlink:href="#9" y="10.855"/><use xlink:href="#10" y="13.026"/><use xlink:href="#11" y="15.197"/><use xlink:href="#12" y="17.368"/><use xlink:href="#13" y="19.539"/><use xlink:href="#14" y="21.71"/><use xlink:href="#15" y="23.881"/><use xlink:href="#16" y="26.052"/><use xlink:href="#17" y="28.223"/><use xlink:href="#18" y="30.394"/><use xlink:href="#19" y="32.565"/><use xlink:href="#21" y="34.736"/><use xlink:href="#23" y="36.907"/><use xlink:href="#24" y="39.078"/><use xlink:href="#25" y="41.249"/><use xlink:href="#26" y="43.42"/><use xlink:href="#27" y="45.591"/><use xlink:href="#29" y="47.762"/><text y="51.603" class="f">[mwbc@matts-mbp-2</text><text x="18.036" y="51.603" class="f">PLAN</text><text x="23.046" y="51.603" class="f">390</text><text x="27.054" y="51.603" class="f">SP22]$</text><text x="34.068" y="51.603" class="f">ex</text></svg><svg x="4300"><use xlink:href="#a"/><use xlink:href="#b" x="36.996" y="49.908"/><use xlink:href="#4"/><use xlink:href="#5" y="2.171"/><use xlink:href="#6" y="4.342"/><use xlink:href="#7" y="6.513"/><use xlink:href="#8" y="8.684"/><use xlink:href="#9" y="10.855"/><use xlink:href="#10" y="13.026"/><use xlink:href="#11" y="15.197"/><use xlink:href="#12" y="17.368"/><use xlink:href="#13" y="19.539"/><use xlink:href="#14" y="21.71"/><use xlink:href="#15" y="23.881"/><use xlink:href="#16" y="26.052"/><use xlink:href="#17" y="28.223"/><use xlink:href="#18" y="30.394"/><use xlink:href="#19" y="32.565"/><use xlink:href="#21" y="34.736"/><use xlink:href="#23" y="36.907"/><use xlink:href="#24" y="39.078"/><use xlink:href="#25" y="41.249"/><use xlink:href="#26" y="43.42"/><use xlink:href="#27" y="45.591"/><use xlink:href="#29" y="47.762"/><text y="51.603" class="f">[mwbc@matts-mbp-2</text><text x="18.036" y="51.603" class="f">PLAN</text><text x="23.046" y="51.603" class="f">390</text><text x="27.054" y="51.603" class="f">SP22]$</text><text x="34.068" y="51.603" class="f">exi</text></svg><svg x="4400"><use xlink:href="#a"/><use xlink:href="#b" x="37.996" y="49.908"/><use xlink:href="#4"/><use xlink:href="#5" y="2.171"/><use xlink:href="#6" y="4.342"/><use xlink:href="#7" y="6.513"/><use xlink:href="#8" y="8.684"/><use xlink:href="#9" y="10.855"/><use xlink:href="#10" y="13.026"/><use xlink:href="#11" y="15.197"/><use xlink:href="#12" y="17.368"/><use xlink:href="#13" y="19.539"/><use xlink:href="#14" y="21.71"/><use xlink:href="#15" y="23.881"/><use xlink:href="#16" y="26.052"/><use xlink:href="#17" y="28.223"/><use xlink:href="#18" y="30.394"/><use xlink:href="#19" y="32.565"/><use xlink:href="#21" y="34.736"/><use xlink:href="#23" y="36.907"/><use xlink:href="#24" y="39.078"/><use xlink:href="#25" y="41.249"/><use xlink:href="#26" y="43.42"/><use xlink:href="#27" y="45.591"/><use xlink:href="#29" y="47.762"/><use xlink:href="#30" y="49.933"/></svg><svg x="4500"><use xlink:href="#a"/><use xlink:href="#b" x="-.004" y="52.079"/><use xlink:href="#4"/><use xlink:href="#5" y="2.171"/><use xlink:href="#6" y="4.342"/><use xlink:href="#7" y="6.513"/><use xlink:href="#8" y="8.684"/><use xlink:href="#9" y="10.855"/><use xlink:href="#10" y="13.026"/><use xlink:href="#11" y="15.197"/><use xlink:href="#12" y="17.368"/><use xlink:href="#13" y="19.539"/><use xlink:href="#14" y="21.71"/><use xlink:href="#15" y="23.881"/><use xlink:href="#16" y="26.052"/><use xlink:href="#17" y="28.223"/><use xlink:href="#18" y="30.394"/><use xlink:href="#19" y="32.565"/><use xlink:href="#21" y="34.736"/><use xlink:href="#23" y="36.907"/><use xlink:href="#24" y="39.078"/><use xlink:href="#25" y="41.249"/><use xlink:href="#26" y="43.42"/><use xlink:href="#27" y="45.591"/><use xlink:href="#29" y="47.762"/><use xlink:href="#30" y="49.933"/></svg><svg x="4600"><use xlink:href="#a"/><use xlink:href="#b" x="-.004" y="52.079"/><use xlink:href="#5"/><use xlink:href="#6" y="2.171"/><use xlink:href="#7" y="4.342"/><use xlink:href="#8" y="6.513"/><use xlink:href="#9" y="8.684"/><use xlink:href="#10" y="10.855"/><use xlink:href="#11" y="13.026"/><use xlink:href="#12" y="15.197"/><use xlink:href="#13" y="17.368"/><use xlink:href="#14" y="19.539"/><use xlink:href="#15" y="21.71"/><use xlink:href="#16" y="23.881"/><use xlink:href="#17" y="26.052"/><use xlink:href="#18" y="28.223"/><use xlink:href="#19" y="30.394"/><use xlink:href="#21" y="32.565"/><use xlink:href="#23" y="34.736"/><use xlink:href="#24" y="36.907"/><use xlink:href="#25" y="39.078"/><use xlink:href="#26" y="41.249"/><use xlink:href="#27" y="43.42"/><use xlink:href="#29" y="45.591"/><use xlink:href="#30" y="47.762"/><text y="51.603" class="f">exit</text></svg></svg></g></g></svg></svg>